# Blender v2.82 (sub 7) OBJ File: 'firewall.blend'
# www.blender.org
mtllib firewall_triangle.mtl
o Cube
v 0.000000 3.000000 -3.000000
v 0.000000 0.000000 -3.000000
v 0.000000 3.000000 3.000000
v 0.000000 0.000000 3.000000
v -1.000000 3.000000 -2.000000
v -1.000000 0.000000 -2.000000
v -1.000000 3.000000 2.000000
v -1.000000 0.000000 2.000000
vt 0.583333 0.250000
vt 0.416667 0.250000
vt 0.583333 0.750000
vt 1.000000 0.250000
vt 0.000000 0.250000
vt 1.000000 0.750000
vt 0.000000 0.750000
vt 0.416667 0.750000
vt -0.001214 0.927477
vt 0.165453 0.760810
vt 0.998786 0.927477
vt 0.833333 0.750000
vt 0.166667 0.750000
vt 0.583333 0.750000
vt 0.416667 0.750000
vt 0.583333 0.250000
vt 0.416667 0.250000
vt 0.833333 0.250000
vt 0.166667 0.250000
vn 0.7071 0.0000 -0.7071
vn -1.0000 0.0000 0.0000
vn 0.0000 -1.0000 0.0000
vn 0.7071 0.0000 0.7071
vn 1.0000 0.0000 0.0000
usemtl Material.001
s off
f 4/1/1 8/2/1 3/3/1
f 2/4/2 4/5/2 1/6/2
f 3/7/2 1/6/2 4/5/2
f 8/2/1 7/8/1 3/3/1
f 3/9/3 7/10/3 1/11/3
f 5/12/3 1/11/3 7/13/3
f 1/14/4 5/15/4 2/16/4
f 6/17/4 2/16/4 5/15/4
f 5/12/5 7/13/5 6/18/5
f 8/19/5 6/18/5 7/13/5
