# Blender v2.82 (sub 7) OBJ File: 'island.blend'
# www.blender.org
mtllib island.mtl
o Cube
v 0.033594 14.215610 -9.909844
v -3.525201 13.269269 -9.025806
v -7.152951 13.570832 -6.579602
v -8.701432 13.927606 -4.133633
v -9.584818 14.634487 -0.465723
v -9.233735 14.183098 3.824740
v -6.776765 14.479259 6.889143
v -3.824739 14.183098 9.233736
v 0.546380 13.449747 9.496092
v 3.124673 14.294761 9.131893
v 6.540153 14.322415 7.863248
v 9.009703 14.009595 3.105910
v 9.994524 14.183098 -0.000000
v 8.947147 13.723210 -3.805077
v 6.706585 14.260903 -7.588324
v 3.797510 14.332905 -8.873430
v 0.651644 3.947613 -0.300850
v -0.922379 6.926912 0.000000
v -4.925468 10.042845 -2.458299
v -3.911549 11.064638 -5.451105
v -2.148389 8.346880 -3.751316
v -7.919284 11.933664 0.064679
v -4.752851 10.452958 2.579278
v -4.742743 11.445222 5.869236
v -0.660094 7.861125 1.287207
v -1.241282 11.453841 5.884903
v 0.733886 6.296451 1.138531
v 2.587524 11.476480 7.703816
v -1.089494 11.440243 -7.570031
v 3.852501 10.019359 -5.517009
v -0.000000 7.653421 -2.498631
v 1.150745 11.396546 -6.239777
v 2.327487 7.714276 -2.561459
v 6.541136 12.003317 -5.750628
v 7.553850 11.330008 -3.108706
v 4.997262 9.829980 -0.000000
v 2.799138 7.426796 1.650511
v 7.203779 11.192709 0.780671
v 4.633499 10.895198 3.971316
v 6.624634 12.647793 4.794170
v -3.242747 14.183098 -7.828685
v 0.000000 14.183098 -8.473707
v -5.991815 14.183098 -5.991816
v -7.828684 14.183098 -3.242747
v -8.473706 14.183098 0.000000
v -7.828684 14.183098 3.242748
v -5.991815 14.183098 5.991816
v -3.242748 14.183098 7.828685
v -0.000001 14.183098 8.473707
v 3.242746 14.183098 7.828685
v 5.991815 14.183098 5.991817
v 7.828685 14.183098 3.242749
v 8.473707 14.183098 -0.000000
v 7.828685 14.183098 -3.242749
v 5.991815 14.183098 -5.991817
v 3.242744 14.183098 -7.828686
v -5.642255 14.041495 -7.062346
v -8.255449 14.387944 -3.412831
v -7.747597 14.841739 -4.708059
v -8.981371 14.832238 1.358421
v -8.742286 14.574240 3.198321
v -2.477178 14.505638 -8.838383
v 5.591936 14.541245 -7.071997
v -7.733436 14.716488 4.373185
v 9.262903 14.506927 0.633045
v 9.120013 14.776856 -2.585900
v 6.000785 14.516552 6.995905
v -5.650087 14.908463 6.924473
v -1.101640 14.371022 8.850964
v -0.000000 14.183098 0.000000
vt 0.000000 0.000000
vt 0.000000 0.000000
vt 0.000000 0.000000
vt 0.000000 0.000000
vt 0.000000 0.000000
vt 0.000000 0.000000
vt 0.000000 0.000000
vt 0.000000 0.000000
vt 0.000000 0.000000
vt 0.000000 0.000000
vt 0.000000 0.000000
vt 0.000000 0.000000
vt 0.000000 0.000000
vt 0.000000 0.000000
vt 0.000000 0.000000
vt 0.000000 0.000000
vt 0.000000 0.000000
vt 0.000000 0.000000
vt 0.000000 0.000000
vt 0.000000 0.000000
vt 0.000000 0.000000
vt 0.000000 0.000000
vt 0.000000 0.000000
vt 0.000000 0.000000
vt 0.000000 0.000000
vt 0.000000 0.000000
vt 0.000000 0.000000
vt 0.000000 0.000000
vt 0.000000 0.000000
vt 0.000000 0.000000
vt 0.000000 0.000000
vt 0.000000 0.000000
vt 0.000000 0.000000
vt 0.000000 0.000000
vt 0.000000 0.000000
vt 0.000000 0.000000
vt 0.000000 0.000000
vt 0.000000 0.000000
vt 0.000000 0.000000
vt 0.000000 0.000000
vt 0.000000 0.000000
vt 0.000000 0.000000
vt 0.000000 0.000000
vt 0.000000 0.000000
vt 0.000000 0.000000
vt 0.000000 0.000000
vt 0.000000 0.000000
vt 0.000000 0.000000
vt 0.000000 0.000000
vt 0.000000 0.000000
vt 0.000000 0.000000
vt 0.000000 0.000000
vt 0.000000 0.000000
vt 0.000000 0.000000
vt 0.000000 0.000000
vt 0.000000 0.000000
vt 0.000000 0.000000
vt 0.000000 0.000000
vt 0.000000 0.000000
vt 0.000000 0.000000
vt 0.000000 0.000000
vt 0.000000 0.000000
vt 0.000000 0.000000
vt 0.000000 0.000000
vt 0.000000 0.000000
vt 0.000000 0.000000
vt 0.000000 0.000000
vt 0.000000 0.000000
vt 0.000000 0.000000
vt 0.000000 0.000000
vn -0.8746 -0.4729 0.1069
vn -0.5594 -0.8191 -0.1272
vn -0.5805 -0.8102 -0.0816
vn -0.6080 -0.6654 -0.4332
vn -0.6486 -0.7273 -0.2246
vn -0.5449 -0.8071 -0.2273
vn -0.5474 -0.7177 -0.4305
vn -0.4074 -0.7570 -0.5109
vn -0.5731 -0.6684 -0.4741
vn -0.8383 -0.5363 -0.0985
vn -0.5629 -0.7898 0.2437
vn -0.7554 -0.4474 0.4787
vn -0.6740 -0.2815 0.6830
vn -0.6441 -0.7645 -0.0277
vn -0.5820 -0.7781 0.2365
vn -0.6035 -0.5863 0.5405
vn -0.5448 -0.5715 0.6137
vn -0.1636 -0.7429 0.6491
vn -0.2839 -0.7476 0.6004
vn -0.4574 -0.8510 0.2581
vn -0.0000 -0.8752 0.4837
vn 0.6622 0.6287 -0.4076
vn -0.4334 -0.4598 0.7751
vn -0.0008 -0.7880 0.6157
vn 0.3006 0.7056 -0.6416
vn -0.2629 -0.7834 0.5631
vn 0.2740 -0.4757 0.8358
vn 0.0209 0.6395 0.7685
vn -0.1698 -0.7422 -0.6483
vn 0.3087 -0.7791 -0.5455
vn -0.3635 0.6821 0.6346
vn -0.1979 0.7473 0.6343
vn -0.1510 -0.6752 -0.7220
vn 0.1595 -0.7220 -0.6733
vn 0.3457 -0.4329 -0.8325
vn -0.1020 -0.6117 -0.7845
vn 0.0041 -0.7895 -0.6137
vn -0.0098 -0.5114 -0.8593
vn 0.3060 -0.6144 -0.7272
vn 0.3570 -0.5708 -0.7394
vn 0.5235 -0.7558 -0.3933
vn 0.7272 -0.5449 -0.4176
vn 0.7335 -0.4606 -0.4998
vn 0.8702 -0.4889 0.0611
vn 0.7117 -0.6935 -0.1121
vn 0.7418 -0.6402 0.1995
vn 0.3965 -0.9110 -0.1135
vn 0.5211 -0.8533 0.0168
vn 0.7072 -0.6862 -0.1703
vn 0.6875 -0.7152 -0.1258
vn 0.8746 -0.4671 -0.1298
vn -0.2982 0.7885 -0.5379
vn 0.0757 -0.5229 0.8490
vn 0.3096 -0.4761 0.8231
vn 0.4349 -0.8590 0.2702
vn 0.7910 -0.5689 0.2251
vn 0.6464 -0.6622 0.3791
vn 0.6368 -0.6909 0.3424
vn 0.5304 -0.7696 0.3555
vn 0.5082 -0.7640 0.3975
vn 0.5189 -0.7443 0.4204
vn -0.6331 0.6330 -0.4456
vn 0.0000 -1.0000 -0.0000
vn 0.1108 -0.9799 0.1658
vn 0.2251 -0.7994 0.5571
vn -0.4073 0.6105 -0.6792
vn -0.3503 -0.9341 -0.0697
vn -0.3969 -0.9121 -0.1027
vn -0.4432 0.8543 -0.2714
vn -0.5500 -0.7499 -0.3675
vn -0.3435 -0.9391 0.0121
vn -0.2578 -0.8758 -0.4080
vn -0.6992 0.7146 -0.0238
vn -0.3813 0.8492 -0.3653
vn 0.6717 -0.2665 0.6912
vn -0.6455 0.7523 0.1320
vn -0.4506 -0.8592 0.2422
vn -0.6356 -0.7616 0.1264
vn -0.3892 -0.9178 -0.0781
vn -0.4601 0.8691 0.1817
vn -0.0699 -0.9337 -0.3512
vn 0.6969 -0.6398 0.3240
vn -0.1254 -0.9918 -0.0254
vn 0.3199 -0.4013 0.8583
vn 0.0045 -0.9997 -0.0225
vn 0.2601 -0.8836 -0.3893
vn 0.2416 0.9704 -0.0052
vn 0.1148 -0.9294 -0.3507
vn -0.2886 -0.9378 0.1929
vn 0.1303 0.9617 -0.2410
vn 0.1670 -0.9846 -0.0525
vn 0.0611 -0.9921 -0.1098
vn -0.3742 -0.8261 0.4213
vn -0.4013 0.8846 0.2375
vn 0.3201 0.9468 -0.0325
vn -0.5795 -0.7171 0.3872
vn -0.4010 0.8852 0.2359
vn 0.4418 -0.8921 -0.0944
vn 0.4536 -0.8866 -0.0902
vn -0.4438 -0.8944 -0.0553
vn 0.9447 0.1696 -0.2805
vn 0.0165 -0.7577 0.6524
vn 0.4632 -0.8768 -0.1289
vn 0.5468 0.8082 0.2185
vn -0.1486 -0.9884 -0.0296
vn 0.2455 0.9673 0.0638
vn -0.1433 -0.9895 0.0181
vn 0.4224 -0.8613 0.2823
vn -0.3235 0.9398 -0.1098
vn 0.2050 -0.9294 0.3068
vn -0.1485 0.9841 -0.0978
vn 0.0598 0.9814 0.1825
vn -0.1076 -0.8342 -0.5409
vn -0.4025 -0.2318 0.8856
vn -0.0597 -0.9521 0.3000
vn -0.2969 -0.8440 -0.4467
vn 0.0212 -0.9489 -0.3148
vn 0.0625 0.6451 0.7615
vn -0.4323 -0.6282 0.6469
vn -0.2900 0.8040 -0.5191
vn -0.3210 0.8010 0.5053
usemtl Material
s off
f 18/1/1 21/2/1 17/3/1
f 21/2/2 18/1/2 19/4/2
f 18/1/3 22/5/3 19/4/3
f 19/4/4 20/6/4 21/2/4
f 19/4/5 22/5/5 4/7/5
f 3/8/6 20/6/6 4/7/6
f 20/6/7 19/4/7 4/7/7
f 2/9/8 20/6/8 3/8/8
f 20/6/9 2/9/9 21/2/9
f 4/7/10 22/5/10 5/10/10
f 23/11/11 22/5/11 18/1/11
f 17/3/12 25/12/12 18/1/12
f 22/5/13 23/11/13 5/10/13
f 5/10/14 23/11/14 6/13/14
f 23/11/15 24/14/15 6/13/15
f 6/13/16 24/14/16 7/15/16
f 7/15/17 24/14/17 8/16/17
f 8/16/18 24/14/18 9/17/18
f 18/1/19 25/12/19 23/11/19
f 24/14/20 23/11/20 25/12/20
f 24/14/21 26/18/21 9/17/21
f 25/12/22 26/18/22 27/19/22
f 25/12/23 17/3/23 27/19/23
f 25/12/24 26/18/24 24/14/24
f 27/19/25 26/18/25 28/20/25
f 28/20/26 9/17/26 26/18/26
f 9/17/27 28/20/27 10/21/27
f 1/22/28 2/9/28 29/23/28
f 21/2/29 2/9/29 29/23/29
f 32/24/30 21/2/30 29/23/30
f 29/23/31 32/24/31 1/22/31
f 16/25/32 1/22/32 32/24/32
f 32/24/33 30/26/33 31/27/33
f 32/24/34 31/27/34 21/2/34
f 31/27/35 17/3/35 21/2/35
f 32/24/36 16/25/36 30/26/36
f 30/26/37 33/28/37 31/27/37
f 17/3/38 31/27/38 33/28/38
f 15/29/39 34/30/39 16/25/39
f 30/26/40 16/25/40 34/30/40
f 30/26/41 34/30/41 35/31/41
f 35/31/42 34/30/42 14/32/42
f 14/32/43 34/30/43 15/29/43
f 35/31/44 14/32/44 38/33/44
f 13/34/45 38/33/45 14/32/45
f 12/35/46 38/33/46 13/34/46
f 36/36/47 30/26/47 35/31/47
f 36/36/48 35/31/48 38/33/48
f 30/26/49 36/36/49 33/28/49
f 36/36/50 37/37/50 33/28/50
f 17/3/51 33/28/51 37/37/51
f 28/20/52 37/37/52 27/19/52
f 37/37/53 27/19/53 17/3/53
f 10/21/54 28/20/54 11/38/54
f 36/36/55 38/33/55 39/39/55
f 36/36/56 39/39/56 37/37/56
f 11/38/57 40/40/57 12/35/57
f 38/33/58 12/35/58 40/40/58
f 40/40/59 39/39/59 38/33/59
f 28/20/60 39/39/60 40/40/60
f 28/20/61 40/40/61 11/38/61
f 28/20/62 39/39/62 37/37/62
f 45/41/63 70/42/63 46/43/63
f 41/44/64 43/45/64 57/46/64
f 2/9/65 41/44/65 57/46/65
f 3/8/66 57/46/66 2/9/66
f 44/47/67 45/41/67 5/10/67
f 58/48/68 44/47/68 5/10/68
f 5/10/69 58/48/69 4/7/69
f 43/45/70 44/47/70 59/49/70
f 43/45/71 59/49/71 57/46/71
f 58/48/72 59/49/72 44/47/72
f 58/48/73 59/49/73 4/7/73
f 3/8/74 4/7/74 57/46/74
f 57/46/75 59/49/75 4/7/75
f 5/10/76 6/13/76 60/50/76
f 45/41/77 60/50/77 5/10/77
f 45/41/78 46/43/78 60/50/78
f 60/50/79 46/43/79 61/51/79
f 61/51/80 60/50/80 6/13/80
f 42/52/81 41/44/81 62/53/81
f 2/9/82 62/53/82 41/44/82
f 42/52/83 62/53/83 1/22/83
f 1/22/84 62/53/84 2/9/84
f 42/52/85 1/22/85 56/54/85
f 55/55/86 56/54/86 63/56/86
f 14/32/87 15/29/87 63/56/87
f 63/56/88 14/32/88 55/55/88
f 54/57/89 55/55/89 14/32/89
f 15/29/90 16/25/90 63/56/90
f 16/25/91 63/56/91 56/54/91
f 16/25/92 56/54/92 1/22/92
f 46/43/93 64/58/93 61/51/93
f 6/13/94 64/58/94 61/51/94
f 47/59/95 64/58/95 7/15/95
f 46/43/96 47/59/96 64/58/96
f 6/13/97 7/15/97 64/58/97
f 65/60/98 53/61/98 66/62/98
f 53/61/99 54/57/99 66/62/99
f 65/60/100 66/62/100 13/34/100
f 13/34/101 14/32/101 66/62/101
f 14/32/102 66/62/102 54/57/102
f 53/61/103 65/60/103 12/35/103
f 13/34/104 65/60/104 12/35/104
f 53/61/105 12/35/105 52/63/105
f 11/38/106 12/35/106 67/64/106
f 12/35/107 67/64/107 52/63/107
f 51/65/108 52/63/108 67/64/108
f 10/21/109 50/66/109 9/17/109
f 50/66/110 51/65/110 67/64/110
f 10/21/111 67/64/111 50/66/111
f 11/38/112 67/64/112 10/21/112
f 50/66/113 9/17/113 49/67/113
f 68/68/114 48/69/114 69/70/114
f 48/69/115 49/67/115 69/70/115
f 9/17/116 69/70/116 49/67/116
f 68/68/117 69/70/117 8/16/117
f 8/16/118 9/17/118 69/70/118
f 47/59/119 48/69/119 68/68/119
f 47/59/120 7/15/120 68/68/120
f 8/16/121 68/68/121 7/15/121
f 46/43/63 70/42/63 47/59/63
f 47/59/63 70/42/63 48/69/63
f 49/67/63 48/69/63 70/42/63
f 49/67/63 70/42/63 50/66/63
f 50/66/63 70/42/63 51/65/63
f 51/65/63 70/42/63 52/63/63
f 52/63/63 70/42/63 53/61/63
f 53/61/63 70/42/63 54/57/63
f 54/57/63 70/42/63 55/55/63
f 55/55/63 70/42/63 56/54/63
f 56/54/63 70/42/63 42/52/63
f 42/52/63 70/42/63 41/44/63
f 41/44/63 70/42/63 43/45/63
f 43/45/63 70/42/63 44/47/63
f 44/47/63 70/42/63 45/41/63
