# Blender v2.82 (sub 7) OBJ File: 'дивнахрінь (2).blend'
# www.blender.org
mtllib kub.mtl
o Cube_Cube.001
v -1.000000 -1.000000 1.000000
v -1.000000 1.000000 1.000000
v -1.000000 -1.000000 -1.000000
v -1.000000 1.000000 -1.000000
v 1.000000 -1.000000 1.000000
v 1.000000 1.000000 1.000000
v 1.000000 -1.000000 -1.000000
v 1.000000 1.000000 -1.000000
vt 0.000000 0.000000
vt 0.000000 0.000000
vt 0.000000 0.000000
vt 0.000000 0.000000
vt 0.000000 0.000000
vt 0.000000 0.000000
vt 0.000000 0.000000
vt 0.000000 0.000000
vn 0.0000 0.0000 -1.0000
vn 0.0000 1.0000 0.0000
vn 0.0000 -1.0000 0.0000
vn 1.0000 0.0000 0.0000
vn 0.0000 0.0000 1.0000
vn -1.0000 0.0000 0.0000
usemtl None
s off
f 7/1/1 3/2/1 8/3/1
f 3/2/1 4/4/1 8/3/1
f 8/3/2 4/4/2 6/5/2
f 2/6/2 6/5/2 4/4/2
f 7/1/3 5/7/3 3/2/3
f 1/8/3 3/2/3 5/7/3
f 7/1/4 8/3/4 5/7/4
f 6/5/4 5/7/4 8/3/4
f 5/7/5 6/5/5 2/6/5
f 2/6/5 1/8/5 5/7/5
f 4/4/6 3/2/6 2/6/6
f 3/2/6 1/8/6 2/6/6
